<?xml version="1.0" standalone="no"?>
<!DOCTYPE svg PUBLIC "-//W3C//DTD SVG 20010904//EN"
 "http://www.w3.org/TR/2001/REC-SVG-20010904/DTD/svg10.dtd">
<svg version="1.0" xmlns="http://www.w3.org/2000/svg"
 width="573.000000pt" height="435.000000pt" viewBox="0 0 573.000000 435.000000"
 preserveAspectRatio="xMidYMid meet">

<g transform="translate(0.000000,435.000000) scale(0.100000,-0.100000)"
fill="#000000" stroke="none">
<path d="M2943 3886 c34 -51 57 -144 57 -228 0 -46 4 -77 8 -70 5 7 28 16 53
20 38 6 44 11 47 35 5 38 -49 141 -109 210 -51 57 -85 78 -56 33z"/>
<path d="M3340 3292 c0 -5 -15 -8 -34 -7 -19 0 -33 -3 -30 -6 2 -4 0 -10 -6
-14 -5 -3 -10 2 -10 12 -1 10 -18 -16 -38 -56 -29 -59 -56 -93 -126 -160 -49
-48 -134 -130 -189 -184 -54 -54 -101 -97 -103 -95 -1 2 4 35 12 73 17 73 71
195 125 280 18 28 34 61 35 74 l3 24 -16 -24 c-9 -13 -18 -26 -19 -28 -4 -4
-63 -13 -87 -13 -30 1 -81 -32 -100 -66 -59 -101 -104 -318 -92 -442 12 -120
58 -265 81 -256 7 3 20 -1 28 -9 13 -13 15 -13 21 4 3 11 15 19 28 20 56 2 63
5 65 31 7 86 98 255 193 357 19 21 72 78 118 127 85 92 125 156 147 241 16 59
18 125 4 125 -5 0 -10 -4 -10 -8z"/>
<path d="M3460 3140 c0 -25 -7 -73 -15 -108 -34 -146 -106 -238 -275 -352
-143 -97 -278 -231 -246 -243 9 -4 13 -1 10 6 -3 8 12 13 48 14 28 1 54 6 57
11 3 5 26 12 51 15 86 13 114 20 128 33 7 8 23 14 35 14 26 0 92 74 81 92 -4
6 -3 8 3 5 10 -6 102 91 136 144 11 16 23 29 28 29 15 0 21 -47 17 -130 -2
-59 0 -80 9 -80 7 0 13 4 13 9 0 5 12 9 26 9 15 0 30 5 34 12 6 9 9 9 15 0 27
-44 33 97 9 216 -15 79 -101 271 -143 324 l-21 25 0 -45z"/>
<path d="M474 3015 c-7 -16 38 -201 58 -242 8 -15 19 -27 25 -26 6 1 9 -6 6
-17 -3 -10 0 -27 6 -37 10 -15 10 -14 5 8 -6 29 9 46 29 32 7 -5 38 -9 70 -8
42 1 56 -2 53 -12 -3 -8 1 -10 11 -6 12 5 14 3 8 -7 -6 -9 -4 -11 5 -5 13 8
-16 41 -66 75 -28 20 -134 153 -168 213 -30 51 -34 54 -42 32z"/>
<path d="M5530 2962 c-92 -140 -298 -314 -457 -388 -24 -10 -43 -23 -43 -27 0
-5 -5 -5 -12 -1 -7 4 -8 3 -4 -4 4 -7 2 -12 -3 -12 -6 0 -11 -5 -11 -11 0 -7
11 -4 26 6 15 10 23 12 19 4 -6 -9 -3 -11 8 -6 9 3 19 2 22 -2 2 -5 51 -9 106
-10 102 -2 124 -5 115 -20 -3 -4 1 -8 9 -8 11 0 12 4 4 14 -13 15 2 18 17 3
21 -21 112 88 170 201 53 106 104 303 83 323 -3 3 -25 -25 -49 -62z"/>
<path d="M2477 2916 c-77 -157 -75 -371 4 -532 29 -59 58 -98 42 -58 -4 12 -2
15 8 12 8 -3 31 1 52 8 20 7 39 13 42 14 9 0 6 9 -26 73 -73 143 -104 286 -97
441 2 53 3 96 3 96 -1 0 -14 -24 -28 -54z"/>
<path d="M580 2720 c0 -5 5 -10 11 -10 5 0 7 5 4 10 -3 6 -8 10 -11 10 -2 0
-4 -4 -4 -10z"/>
<path d="M620 2609 c0 -15 93 -130 139 -171 168 -151 371 -249 761 -369 130
-39 258 -94 333 -142 32 -20 59 -37 62 -37 25 0 -127 221 -208 303 -68 69
-154 135 -224 170 -17 9 -112 49 -210 88 -98 39 -203 83 -233 96 -30 14 -60
26 -66 27 -7 1 -18 7 -25 12 -26 20 -49 24 -75 12 -21 -10 -27 -9 -35 3 -8 12
-10 12 -19 -1 -9 -13 -10 -13 -10 0 0 11 -2 12 -8 2 -6 -9 -22 -10 -63 -3 -88
15 -119 18 -119 10z"/>
<path d="M3475 2475 c-5 -17 -8 -32 -8 -35 1 -3 -27 -41 -61 -85 -56 -72 -167
-175 -189 -175 -10 0 -4 206 7 235 6 17 6 17 -3 3 -13 -19 -48 -31 -144 -49
-46 -9 -63 -15 -50 -20 11 -4 -7 -9 -47 -14 -36 -4 -76 -12 -90 -17 -14 -6
-41 -12 -60 -15 -19 -3 -36 -6 -38 -7 -1 -2 16 -28 38 -60 44 -62 49 -79 23
-69 -24 10 -103 62 -132 89 -21 20 -26 21 -39 7 -9 -9 -27 -13 -44 -11 -22 4
-28 1 -24 -9 3 -8 1 -11 -4 -8 -6 3 -10 1 -10 -5 0 -6 -5 -8 -11 -4 -6 3 -7 9
-3 13 5 3 10 13 12 21 1 10 -3 9 -13 -5 -14 -18 -11 -24 57 -93 40 -41 88 -81
107 -89 27 -12 78 -13 300 -7 l266 6 64 57 c76 66 136 140 173 213 34 67 58
126 58 144 0 17 -44 14 -79 -5 -14 -8 -21 -9 -17 -2 4 6 2 11 -3 11 -6 0 -11
-6 -12 -12 0 -7 -4 -4 -8 7 -7 17 -9 16 -16 -10z"/>
<path d="M4710 2409 c12 -8 9 -10 -12 -6 -16 2 -28 0 -28 -4 0 -5 -8 -9 -18
-9 -23 0 -111 -45 -177 -90 -105 -72 -235 -222 -314 -363 l-33 -58 74 45 c97
59 207 105 370 156 219 69 297 98 413 154 123 61 225 129 225 152 0 8 5 12 10
9 6 -3 10 -2 10 3 0 6 -7 13 -16 16 -8 3 -13 2 -10 -3 3 -5 -13 -13 -36 -19
-27 -7 -45 -7 -48 -1 -4 5 -93 11 -200 14 -106 2 -195 7 -198 10 -3 3 -10 5
-16 5 -6 0 -4 -5 4 -11z"/>
<path d="M446 2318 c11 -37 64 -140 97 -188 44 -64 114 -137 175 -182 54 -40
180 -104 217 -111 11 -2 27 -6 35 -9 48 -17 157 -33 300 -44 19 -2 53 -5 75
-8 76 -9 230 -11 255 -3 l25 8 -25 -16 -25 -16 25 8 c35 11 281 10 288 -1 3
-5 -3 -6 -13 -2 -15 5 -16 4 -5 -9 8 -9 9 -15 2 -15 -6 0 -16 8 -21 18 -6 9
-11 12 -11 6 0 -24 27 -36 51 -23 23 12 23 12 -16 46 -108 94 -248 152 -498
207 -403 89 -632 171 -850 303 -77 46 -87 50 -81 31z m1101 -544 c-3 -3 -12
-4 -19 -1 -8 3 -5 6 6 6 11 1 17 -2 13 -5z"/>
<path d="M5520 2278 c-205 -123 -495 -223 -860 -297 -216 -45 -328 -90 -455
-187 -74 -56 -155 -134 -140 -134 6 0 3 -5 -5 -10 -9 -6 -10 -10 -3 -10 6 0
19 7 27 16 9 8 20 12 26 9 5 -3 10 -1 10 5 0 6 4 9 8 6 5 -3 49 6 98 20 114
31 292 59 514 79 231 21 339 41 430 78 150 60 264 155 353 293 44 68 93 171
86 178 -2 2 -42 -19 -89 -46z"/>
<path d="M1810 2223 c78 -63 149 -141 196 -213 48 -75 114 -211 114 -236 0 -9
5 -12 12 -8 7 5 9 2 6 -8 -4 -8 -1 -15 5 -15 107 -5 181 -14 187 -23 6 -9 9
-9 13 1 4 12 7 11 16 -1 14 -20 14 -12 -5 62 -32 127 -112 254 -205 325 -88
67 -176 105 -319 137 l-65 15 45 -36z"/>
<path d="M4185 2235 c-277 -68 -449 -249 -499 -526 l-6 -35 72 -2 c40 -1 81
-5 91 -8 11 -4 17 0 17 11 0 9 4 14 10 10 5 -3 6 -13 3 -22 -5 -13 -2 -12 13
3 10 11 30 51 43 89 63 182 167 341 294 446 64 54 59 58 -38 34z"/>
<path d="M2570 1916 c0 -63 -2 -63 107 -50 l51 7 4 43 3 44 -67 0 c-36 0 -73
3 -82 6 -13 5 -16 -3 -16 -50z"/>
<path d="M2915 1919 c3 -23 6 -43 7 -45 4 -3 153 -6 259 -5 l87 1 4 45 3 45
-182 0 -182 0 4 -41z"/>
<path d="M3315 1952 c6 -4 10 -22 11 -40 1 -18 3 -34 5 -36 2 -2 37 -6 77 -8
l72 -4 0 48 0 48 -87 0 c-49 0 -83 -4 -78 -8z"/>
<path d="M490 1874 c0 -14 72 -74 87 -73 11 0 13 3 6 6 -7 2 -13 10 -13 16 0
7 -18 22 -40 34 -22 12 -40 19 -40 17z"/>
<path d="M5515 1852 c-98 -55 -279 -119 -455 -160 -72 -18 -347 -52 -412 -52
-36 0 -57 -4 -53 -10 4 -6 72 -10 170 -9 91 0 168 -2 173 -5 17 -11 273 -15
266 -4 -4 7 0 7 12 0 11 -5 26 -7 34 -5 13 4 13 3 0 -6 -12 -9 -12 -10 5 -8
33 6 55 19 49 28 -3 5 1 6 9 3 16 -6 224 192 246 234 14 27 17 27 -44 -6z"/>
<path d="M1625 1750 c-13 -6 -15 -9 -5 -9 8 0 22 4 30 9 18 12 2 12 -25 0z"/>
<path d="M1688 1753 c7 -3 16 -2 19 1 4 3 -2 6 -13 5 -11 0 -14 -3 -6 -6z"/>
<path d="M2691 1733 c53 -61 83 -93 88 -93 4 0 7 27 8 60 l3 60 -62 0 -61 0
24 -27z"/>
<path d="M2940 1686 l0 -75 55 -6 c61 -8 253 3 239 14 -5 3 -9 36 -9 73 l0 68
-142 0 -143 0 0 -74z"/>
<path d="M3265 1686 l0 -74 50 56 c86 96 86 92 13 92 l-63 0 0 -74z"/>
<path d="M4493 1623 c15 -2 37 -2 50 0 12 2 0 4 -28 4 -27 0 -38 -2 -22 -4z"/>
<path d="M5205 1590 c-3 -6 1 -7 9 -4 18 7 21 14 7 14 -6 0 -13 -4 -16 -10z"/>
<path d="M2825 1374 c4 -77 9 -141 11 -143 2 -2 4 57 4 132 0 87 -4 138 -11
143 -8 4 -9 -34 -4 -132z"/>
<path d="M2884 1498 c-11 -18 -6 -969 6 -1118 8 -95 16 -142 28 -160 16 -24
17 12 20 620 1 355 0 651 -3 658 -6 15 -41 16 -51 0z"/>
<path d="M2955 1499 c-10 -27 0 -1322 10 -1326 10 -3 11 1325 0 1335 -2 3 -7
-1 -10 -9z"/>
<path d="M3079 1508 c-1 -6 -1 -1048 0 -1193 1 -108 4 -156 11 -149 8 8 15
907 10 1332 0 10 -19 19 -21 10z"/>
<path d="M3147 1504 c-4 -4 -7 -293 -6 -643 0 -380 4 -624 9 -607 9 29 44 477
58 741 4 77 5 223 2 325 l-5 185 -25 3 c-14 2 -29 0 -33 -4z"/>
<path d="M3232 1498 c-6 -8 -10 -72 -10 -158 l0 -145 14 154 c7 85 12 156 10
158 -2 2 -8 -2 -14 -9z"/>
<path d="M2381 1316 c-10 -12 -2 -22 41 -54 51 -38 109 -72 124 -72 4 0 -2 10
-13 23 -11 12 -31 40 -44 62 -24 40 -62 58 -57 27 2 -8 -4 -17 -12 -19 -12 -4
-13 -3 -1 5 11 8 9 11 -8 17 -12 3 -19 11 -16 16 9 14 -1 11 -14 -5z m89 -26
c0 -5 -5 -10 -11 -10 -5 0 -7 5 -4 10 3 6 8 10 11 10 2 0 4 -4 4 -10z"/>
<path d="M1052 1268 c52 -43 177 -105 264 -130 70 -20 100 -23 259 -22 105 1
230 8 300 17 241 33 361 47 400 47 l40 1 -58 24 c-32 13 -95 33 -140 44 -151
37 -261 44 -607 37 -179 -3 -363 -3 -408 2 l-84 8 34 -28z"/>
<path d="M3553 1242 c-17 -20 -30 -38 -28 -40 6 -6 81 36 95 52 11 14 10 16
-5 10 -9 -4 -20 -2 -24 4 -4 7 -18 -2 -38 -26z"/>
<path d="M3955 1250 c-3 -5 2 -10 12 -11 11 0 13 -3 5 -6 -7 -3 -19 0 -26 6
-7 6 -16 8 -19 4 -4 -3 -17 -7 -29 -9 -13 -1 -50 -13 -83 -26 l-60 -23 40 -3
c22 -1 94 -9 160 -18 229 -29 281 -35 400 -45 200 -17 387 6 496 61 42 22 54
37 15 18 -14 -6 -32 -8 -41 -4 -9 3 -76 8 -148 11 -73 2 -190 9 -262 15 -138
10 -298 20 -380 23 -27 1 -55 6 -62 10 -6 4 -14 3 -18 -3z"/>
<path d="M2180 1065 c-47 -8 -143 -30 -215 -51 -199 -56 -344 -91 -405 -100
l-55 -7 49 -23 c182 -84 429 -44 816 133 30 14 66 30 80 36 24 10 24 10 -15
18 -58 11 -158 9 -255 -6z"/>
<path d="M3620 1071 c-35 -8 -35 -8 -10 -18 14 -6 50 -22 80 -36 112 -51 247
-105 320 -126 41 -12 88 -27 104 -32 48 -15 208 -22 266 -11 30 6 82 21 115
33 l60 23 -97 17 c-53 9 -177 40 -275 67 -98 28 -214 58 -258 67 -92 19 -254
27 -305 16z"/>
<path d="M2430 925 c-90 -17 -190 -51 -404 -139 -88 -36 -185 -71 -215 -77
-31 -7 -60 -16 -65 -20 -16 -14 108 -34 209 -34 131 0 227 31 407 131 73 41
161 88 196 106 34 18 62 36 62 40 0 12 -106 8 -190 -7z"/>
<path d="M3440 929 c8 -5 67 -39 130 -75 283 -162 419 -210 564 -201 87 5 191
25 182 35 -4 3 -39 14 -78 24 -40 10 -133 43 -207 74 -193 80 -322 124 -410
140 -90 16 -204 18 -181 3z"/>
<path d="M2678 810 c-109 -19 -189 -54 -356 -157 -59 -36 -127 -75 -152 -87
l-45 -20 45 -9 c107 -22 256 33 413 152 110 83 166 130 152 129 -5 0 -31 -4
-57 -8z"/>
<path d="M3330 805 c30 -36 251 -195 312 -223 77 -37 174 -56 241 -47 l50 7
-69 37 c-38 20 -115 65 -172 100 -114 70 -196 106 -275 122 -28 5 -63 12 -76
15 -22 5 -23 3 -11 -11z"/>
</g>
</svg>
