 <svg
   xmlns:mapsvg="http://mapsvg.com"
   xmlns:dc="http://purl.org/dc/elements/1.1/"
   xmlns:rdf="http://www.w3.org/1999/02/22-rdf-syntax-ns#"
   xmlns:svg="http://www.w3.org/2000/svg"
   xmlns="http://www.w3.org/2000/svg"
   mapsvg:geoViewBox="-4.796120 51.089515 9.560553 41.363289"
   width="596.41547"
   height="584.5448">
 <path
     d="m 483.13497,208.49393 3.46,-1.71 -0.96,-2.53 1.36,-1.17 -0.72,-0.59 1.33,-4.97 2.35,-1.35 3.18,-5.46 -0.72,-2.22 5.8,-10.26 -0.8,-1.83 -2.62,0.4 -1.7,-1.19 1.34,-1.57 -0.97,-1.29 1.34,-4.75 -1.14,-1.82 1.84,0.36 -2.86,-1.66 4.16,-0.2 2.21,-1.55 3.58,-6.74 -1.62,-0.15 -0.96,-1.86 3,-4.72 -2.73,-2.55 0.45,-0.9 -4.43,-1.45 -1.12,2.72 -2,1.1 0.45,-1.69 -1.54,-0.28 -0.04,-1.77 1.83,-1.16 -1.85,0.22 -0.08,-0.98 -3.9,-1.19 -0.45,-2.51 1.44,0.01 0.49,-1.77 1.74,0.32 1.46,-6.89 1.28,-0.76 1.17,4.51 6.98,2.02 -0.14,1.15 1.46,0.77 5.24,-1.58 3.52,2.27 1.73,-1.55 2.42,-6.09 0,0 3.96,-0.19 0.12,0.82 2.44,-1.41 3,2.04 2.8,-1.54 6.61,4.29 5.79,1.51 -3.46,3.88 -2.47,6.42 -4.88,2.84 -0.33,2.21 -5.18,5.07 -1.62,3.57 0.25,4.34 -1.56,1.53 -1.49,5.98 0.51,4.19 -2.14,1.58 -1.11,4.98 -3.72,6.28 -0.3,5.36 2.19,3.85 -2.73,5.74 -1.12,6.16 0.76,2.8 -1.51,2.24 3.31,5.71 -0.34,1.76 -3.5,2.22 1.31,0.71 -1.37,0.45 0.56,1.37 -0.94,0.96 -2.37,-0.79 -0.44,0.91 1.44,0.57 -2.87,2.38 -2.4,-0.56 -3.54,1.22 -0.46,-1.1 -2.58,-0.28 1.32,-3.07 -2.88,-0.55 0,0 0.44,-1.33 -2.37,-4.18 -3.35,-0.57 1.68,-4.27 -0.39,-3.14 -4.01,-2.96 -3.07,-0.71 z"
     title="Alsace"
     id="FR-A" />

</svg>