 <svg
   xmlns:mapsvg="http://mapsvg.com"
   xmlns:dc="http://purl.org/dc/elements/1.1/"
   xmlns:rdf="http://www.w3.org/1999/02/22-rdf-syntax-ns#"
   xmlns:svg="http://www.w3.org/2000/svg"
   xmlns="http://www.w3.org/2000/svg"
   mapsvg:geoViewBox="-4.796120 51.089515 9.560553 41.363289"
   width="596.41547"
   height="584.5448">
 <path
     d="m 225.50497,336.11393 0.97,1.29 2.81,-0.43 2.24,1.67 -0.97,2.94 2.51,2.53 2.36,-2.83 1.18,1.28 5.02,-0.57 2.79,4.71 1.27,-0.99 2.1,1.3 -1.89,2.95 7.17,2.5 -1.54,1.83 2.82,1.37 -2.46,3.29 -1.18,0.06 -0.39,2.91 2.1,1.07 -2.08,2.93 2.54,0.92 -1.2,1.32 0,0 -0.21,0.02 0,0 2.2,1.92 4.3,0.48 -1.41,1.16 2.91,5.01 0,0 -1.57,0.9 0,0 0.17,0.69 0,0 1.17,4.49 -1.2,0.35 1.16,1.86 -3.25,2.08 0.17,1.9 -2.81,0.88 0.73,3.25 -3.81,3.28 -3.13,0.8 0.25,1.8 -2.45,2.64 0.4,1.17 -3.69,2.11 -1.4,-0.41 1.47,2.16 0.02,3.55 1.57,1.04 0.24,3.53 -4.55,0.23 -0.44,0.95 -0.87,-2.25 -1,0.17 -1.12,4.1 3.38,2.06 -1.83,4.82 -2.21,0.38 1.33,0.52 0.36,2.14 -1.33,0.65 -3.03,-0.98 0.37,1.87 -1.72,0.21 -0.73,2.63 -3.17,2.15 -2.94,-3.22 -1.54,1.45 -3.94,-0.05 -0.78,1.57 -5.31,1.13 -0.59,1.08 -2.89,-1.8 -1.63,0.4 -1.46,2.43 -1.23,-1.66 -2.96,2.32 0.85,2.57 -0.71,1.18 -3.32,-1.89 1.15,-1.43 -1.79,-1.74 -2.47,3.21 -3.47,-0.62 -2.49,2.39 2.21,1.68 -0.92,0.61 0.63,2.74 -1.37,0.1 1.32,4.06 -2.29,1.72 0.32,3 -1.65,0.67 0.09,1.41 1.34,0.15 0.36,1.89 2.55,-0.78 3.35,0.82 0.12,2.2 1.13,-0.27 1.99,4.33 -1.97,0.51 -0.06,2.97 2.76,-1.96 -0.12,4.16 1.38,1.48 -3.15,2.55 1.2,1.76 -1.33,2.95 -0.99,-0.24 0.22,2.61 -2.06,-0.17 -1.19,2.9 -1.95,0.83 0.54,3.53 -3.35,0.83 -1.13,1.8 0.28,4.03 -1.92,0.94 0.59,3.83 0,0 -3.38,2.85 -2,0.2 -2.64,-1.8 -1.9,2.79 -5.25,-6.04 -2.23,-0.67 -0.92,-4.04 -7.86,0.83 -7.1,-4 -1.16,0.91 -0.89,-1.54 -2.7,-1.13 -1.4,0.66 -1.93,-1.41 1.59,-2.83 -3.04,1.35 -0.4,3.74 -3.57,-1 -1.37,-2.38 2.44,-2.23 1.35,-3.49 -0.27,-3.9 -6.08,-2.04 -1.15,0.32 -0.56,2.19 -1.33,-0.13 -0.66,-3.13 -4.36,0.6 -0.34,-1.94 -2.05,-1.16 -0.07,-1.33 5.03,-0.85 2.79,-2.55 6.38,-12.24 6.21,-32.32 1.66,-19.24 2.62,-6.67 7.87,1.33 -0.57,-2.49 -2.14,-1.01 1.48,-0.02 -5.54,-4.62 -2.71,4.81 -0.59,4.55 -0.63,-1.04 4.34,-49.39 2.59,-4.77 1.39,-1.02 0.88,2.21 -1.6,0.28 1.05,0.07 -0.56,1.1 10.89,9.76 4.74,15.92 3.95,3.85 -3.05,-7.07 -1.94,-11.61 0,0 4.97,0.42 0.34,-1.52 0.93,2.95 5.81,1.06 0.96,5.41 0,0 0.05,0.26 0,0 0.74,2.25 0.85,-1.55 1.05,0.2 0.99,1.67 1.41,-0.28 0.89,1.63 2.82,1.2 1.96,0.28 2.31,-1.88 1.82,1.35 0.3,-2.43 1.7,-0.75 -0.96,-0.7 1.13,-2.22 1.98,-1.44 3.28,1.23 1.68,-3.22 3.77,-2.14 -0.78,-4.26 1.19,-3.41 1.7,-0.57 -0.61,-1.33 1.17,1.02 2.08,-2.58 2.12,-0.01 0.72,-2.23 2.3,-1.64 0.27,-4.8 2.26,-0.03 2.64,-4.48 z m -29.29,139.42 0,0 -0.24,-3.57 0,0 -0.39,-0.19 0,0 0.16,2.15 -1.21,0.49 1,0.96 0.68,0.16 z m -1.59,-0.13 0,0 -0.29,0.22 0,0 -0.81,1.93 0.78,1.75 1.73,-1.24 -1.03,-2.52 0,0 -0.24,-0.16 -0.14,0.02 z"
     title="Aquitaine"
     id="FR-B" />

</svg>