<svg
   xmlns:mapsvg="http://mapsvg.com"
   xmlns:dc="http://purl.org/dc/elements/1.1/"
   xmlns:rdf="http://www.w3.org/1999/02/22-rdf-syntax-ns#"
   xmlns:svg="http://www.w3.org/2000/svg"
   xmlns="http://www.w3.org/2000/svg"
   mapsvg:geoViewBox="-4.796120 51.089515 9.560553 41.363289"
   width="596.41547"
   height="584.5448">
  <path
     d="m 294.01497,293.77393 0.74,-3.03 1.03,-0.01 1.56,-2.77 5.24,-0.96 2.06,0.81 3.24,-2.06 -0.45,-2.48 -1.55,-0.86 1.22,-1.84 -1.07,-1.19 1.45,-0.75 0.95,0.77 -0.15,-1.91 3.21,-1.71 0.59,-1.61 1.88,1.71 1.56,-1.08 1.98,0.55 3.09,-4.06 4.59,-0.12 0,0 1.11,2.64 5.88,4.51 2.88,-2.45 3.23,1.99 1.34,-1.73 1.72,-0.08 1.5,3.77 4.32,-2.26 -0.55,-2.04 2.05,-0.09 -0.34,-2.26 1.51,0.42 0.56,2.89 4.08,6.33 0.23,3.82 2.64,1.2 1.39,-0.76 1.25,2.6 3.36,-0.29 2.06,1.87 -0.98,3.8 0.36,4.18 0.82,0.08 -2.41,0.35 -1.97,2.74 0,0 -0.27,0.07 0,0 -0.36,0.05 0,0 -4.82,2.08 1.69,4.56 -0.65,3.05 1.18,1.39 -0.67,2.1 1.07,3.23 -1.8,1.54 -3.58,0.22 -0.33,2.35 2.56,2.62 -1.62,0.94 0.29,3.36 -1.39,1.33 3.81,3.92 -0.15,1.99 1.94,3.54 4.57,3.16 2.12,4.86 -0.89,3.53 -3.08,2.41 0.63,3.59 1.81,-2.47 1.56,0.24 1.35,2.59 0.1,-1.26 2.1,0.79 0.42,-1.32 3.01,-0.39 -0.37,-1.12 1.4,-0.52 2.26,0.21 1.62,1.83 2.59,-0.6 1.36,1.88 -1.49,1.09 1.63,0.96 -0.9,1.58 1.51,1.09 2.08,-1.09 2.27,3.05 -1.79,3.66 0.41,2.45 -0.9,0.53 -0.53,-1.55 -2.04,-0.44 1.04,1.75 0,0 0,0.53 0,0 -1.14,-0.08 -1.02,1.75 1.37,2.34 -3.46,1.01 0.72,2.71 -3.69,0.58 -2.84,5.27 -5.06,0.04 -0.26,2.26 -1.17,0.8 -0.73,-0.76 0.24,1.25 -1.62,-0.9 -1.07,3.4 -2.58,1.42 0,0 -1.07,-0.21 0.3,-1.42 -1.39,0.44 -2.01,-2.11 -0.74,-2.18 -3.19,0.55 0.28,-1.63 -1.8,-1.44 -1.51,0.32 -0.21,2.9 -4.59,0.97 -2.54,-5.19 -0.07,-2.54 -1.83,-1.95 -3.55,2.82 -1.82,-0.51 -0.24,2.8 -1.83,1.47 -2.51,-2.4 -0.92,2.21 0,0 -0.24,0 0,0 -0.19,1.87 -1.1,-0.23 -1.09,2.19 -0.29,4.92 -2.38,4.15 0,0 -1.87,-2.07 -1.04,-4.74 1.06,-0.74 -0.69,-1.14 -1.34,0.25 -1.19,-4.96 -3.6,1.08 0.06,-3.28 -1.55,-1.71 -5.49,5.58 -0.18,3.14 -2.1,2.25 0.43,1.94 -2.52,1.81 -0.65,2.23 -5.46,0.59 -1.07,-1.74 -1.31,0.12 -3.25,1.06 -0.52,1.88 -1.4,-1.21 -0.49,-3.32 -1.21,-0.06 1.74,-5.35 -3.34,-4.95 0.49,-2.74 -1.72,-3.23 0,0 1.65,-0.43 0,0 0.35,0.09 0,0 1.38,-1.15 -1.84,-3.43 3.09,-1.3 0.27,-3.22 2.19,-1.67 -1.31,-0.93 -0.28,-2.37 6.88,-6.78 -0.46,-4.43 5.48,2.47 1.98,-1.3 -1.69,-1.6 1.26,-7.98 -2.34,-2.47 1.03,-2.65 1.48,-0.08 0.08,-4.03 -5.62,-6.83 2.83,-2.43 0,0 0.18,-0.04 0,0 1.32,0.18 2.66,-2.96 0.32,-2.56 1.96,-0.91 -0.41,-3.75 -2.14,-3.05 0.65,-4.13 -3.47,-7.46 -2.11,-0.96 -0.42,0.78 -1.4,-2.9 -0.95,1.27 -2.6,-1.97 1.31,-1.74 -1.93,-0.55 z"
     title="Auvergne"
     id="FR-C" />

</svg>