 <svg
   xmlns:mapsvg="http://mapsvg.com"
   xmlns:dc="http://purl.org/dc/elements/1.1/"
   xmlns:rdf="http://www.w3.org/1999/02/22-rdf-syntax-ns#"
   xmlns:svg="http://www.w3.org/2000/svg"
   xmlns="http://www.w3.org/2000/svg"
   mapsvg:geoViewBox="-4.796120 51.089515 9.560553 41.363289"
   width="596.41547"
   height="584.5448">
  <path
     d="m 404.46497,205.71393 0,0 -1.55,-3.37 -1.4,0.21 -0.37,1.32 -1.2,-0.77 1.4,-1.95 -0.82,-1.25 -2.53,-0.11 1.02,-1.62 -0.67,-1.07 -3.86,-1.11 -5.04,-0.32 -1.77,1.4 0.77,2.38 -9.97,0.42 -0.9,2.25 -2,-0.32 -0.76,-2.59 -1.31,0.29 0.31,1.6 -1.46,-1.12 0,0 -0.52,0.28 0,0 -1.85,1.8 -2.08,-1.22 -0.64,1.27 -1.67,-1.07 -4.55,0.82 0.77,-3.12 -0.78,-1.35 -0.6,1.41 -1.18,-0.26 -0.52,-1.29 1.36,-0.69 -2.06,-1.8 -1.29,-4.57 -2.14,-0.91 0.36,-2.07 -1.41,-0.52 0.35,1.12 -2.31,1 -1.53,-3.1 -2.14,0.33 1.76,-2.55 -0.86,-0.43 0.76,-2.25 -1.73,-0.95 0.41,-1.03 -3.47,-4.11 -1.55,-0.61 -1.59,1.1 -0.58,-1.97 0,0 -1.6,-0.61 -0.46,1.72 -1.2,0.16 -8.1,-0.18 -1.54,1.48 -2.33,-0.65 -1.33,3.38 1.33,3.44 -1.78,2.66 -2.78,1.46 -0.01,1.26 0,0 3.84,1.85 -0.56,1.07 0.82,-0.06 0.58,2.71 3.11,2.69 -1.05,0.64 1.19,2.89 -1.38,1.61 0,0 -0.25,0.21 0,0 -3.3,2.3 -0.56,2.4 1.53,1.08 -0.3,3.88 -7.21,1.82 -0.16,2.49 1.27,-0.21 1.98,2.37 1.13,2.26 -0.7,2.84 1.66,1.81 -4.81,1.37 0,0 0,-0.22 0,0 -0.52,0.77 3.43,6.12 -2.62,6.09 4.73,4.68 2.03,8.56 -0.53,3.46 2.49,2.46 0.07,4.13 -1.25,2.92 0.82,3.38 -1.57,3.44 0,0 1.11,2.64 5.88,4.51 2.88,-2.45 3.23,1.99 1.34,-1.73 1.72,-0.08 1.5,3.77 4.32,-2.26 -0.55,-2.04 2.05,-0.09 -0.34,-2.26 1.51,0.42 0.56,2.89 4.08,6.33 0.23,3.82 2.64,1.2 1.39,-0.76 1.25,2.6 3.36,-0.29 2.06,1.87 -0.98,3.8 0.36,4.18 0.82,0.08 -2.41,0.35 -1.97,2.74 0,0 -0.36,3.68 3.42,0.7 0.69,2 4.71,-1.77 3.13,1.49 1.22,-1.23 0.75,1 1.19,-0.59 -0.19,1.74 1.06,0.13 4.04,-1.77 1.37,-6.57 2.2,-0.08 1.88,1.77 2.68,-1.58 2.07,1.7 0.79,-2.12 1.77,-0.31 1.27,1.65 -1.29,1.18 2.35,1.53 -0.69,2.31 1.61,1.34 0.9,-0.24 6.69,-20.52 0.4,1.07 1.39,-0.84 3.02,1.84 4.56,-1.19 0.05,-0.91 1.58,0.81 1.23,2.86 3.26,0.7 0,0 0.39,-1.01 3.87,-0.83 0.16,-1.53 -2.56,-1.04 -0.05,-2.56 1.91,-1.17 -0.35,-1.73 1.89,-1.64 -1.92,-2.85 -0.11,-2.62 -1.33,-0.08 1.27,-2.45 -2.65,-2.72 5.75,-1.52 -2.62,-1.69 -0.14,-1.45 -2.9,0.3 -1.46,-3.16 -1.24,0.66 -0.4,-3 2.65,-2.11 -1.78,-0.84 0.35,-1.36 4.2,-2.01 2.25,-3.79 0,0 -0.02,-0.31 0,0 2.04,-8.45 1.3,-0.89 -1.93,-0.81 0,0 -0.14,0 0,0 1.09,-1.5 -0.48,-3.19 0,0 -0.16,-0.1 0,0 -1.72,0.12 0,0 -0.26,0 0,0 0.27,-3.54 -2.98,-0.86 1.71,-0.78 -0.85,-0.24 0.48,-1.09 2.05,0.08 2.02,-3.54 -2.32,-4.58 -1.93,2.17 -0.93,-0.64 0,0 -0.71,0.86 -2.01,-1.13 -2.28,2.01 0.32,-2.79 -3.56,-1.84 0.21,-1.73 -2.53,2.08 -2.65,-1.34 0.3,-1.66 -1.32,0.18 -0.03,-1.12 -2.5,1.5 -0.4,-4.68 -1.8,-0.32 3.18,-2.52 -1.6,-3.62 z"
     title="Bourgogne"
     id="FR-D" />

</svg>